<?xml version="1.0" standalone="no"?>
<!DOCTYPE svg PUBLIC "-//W3C//DTD SVG 20010904//EN"
 "http://www.w3.org/TR/2001/REC-SVG-20010904/DTD/svg10.dtd">
<svg version="1.0" xmlns="http://www.w3.org/2000/svg"
 width="1080.000000pt" height="1080.000000pt" viewBox="0 0 1080.000000 1080.000000"
 preserveAspectRatio="xMidYMid meet">

<g transform="translate(0.000000,1080.000000) scale(0.100000,-0.100000)"
fill="#000000" stroke="none">
<path d="M2835 9445 c-220 -34 -444 -179 -562 -364 -59 -92 -104 -199 -124
-295 -18 -88 -19 -206 -19 -3387 0 -2259 3 -3314 11 -3355 37 -211 151 -400
320 -530 73 -56 200 -117 304 -146 l80 -23 2523 -3 c2437 -2 2526 -2 2615 17
348 71 589 307 675 661 13 56 16 188 19 953 2 488 0 887 -4 887 -4 -1 -28 -26
-53 -56 -46 -57 -225 -236 -293 -294 l-37 -32 0 -617 c0 -339 -5 -656 -10
-706 -23 -221 -184 -386 -405 -415 -55 -7 -860 -10 -2525 -8 l-2445 3 -65 22
c-36 13 -82 33 -102 46 -62 37 -133 113 -165 174 -62 120 -58 -143 -58 3428
l0 3270 23 65 c63 174 198 290 373 320 45 7 609 10 1879 8 l1815 -3 6 -485 c5
-424 8 -493 23 -545 83 -282 292 -486 574 -563 l97 -26 462 0 463 -1 0 -368 0
-368 38 -15 c94 -39 203 -98 270 -149 40 -30 75 -55 78 -55 3 0 3 267 2 593
l-3 592 -24 50 c-19 40 -185 211 -820 848 -438 439 -815 812 -838 828 -89 62
32 59 -2088 58 -1505 -1 -1948 -4 -2010 -14z"/>
<path d="M7570 6344 c-234 -34 -378 -86 -537 -196 -112 -77 -161 -167 -150
-274 13 -128 120 -219 257 -218 55 0 75 5 125 33 155 87 185 101 260 122 103
28 249 23 337 -10 287 -110 410 -425 314 -804 -84 -329 -307 -631 -663 -898
-51 -38 -97 -69 -102 -69 -6 0 -34 18 -63 40 -127 96 -328 175 -535 210 -187
32 -493 25 -685 -16 l-28 -6 0 142 c0 167 -23 298 -75 430 -28 72 -36 114 -54
273 -45 388 -123 774 -181 886 -55 107 -152 133 -263 68 -104 -61 -334 -293
-473 -478 -31 -41 -59 -77 -62 -81 -4 -4 -36 -1 -72 7 -203 41 -517 45 -729 7
-119 -21 -103 -28 -181 74 -145 188 -384 426 -481 479 -63 34 -134 36 -184 5
-56 -34 -106 -157 -154 -375 -44 -198 -87 -469 -111 -690 -6 -57 -20 -117 -39
-165 -74 -188 -96 -455 -53 -650 78 -357 325 -662 674 -830 44 -22 83 -41 85
-44 2 -2 -11 -48 -30 -102 -85 -246 -121 -470 -121 -769 l-1 -220 2095 0 2094
0 8 35 c51 242 69 709 35 928 -20 130 -53 258 -90 354 l-26 67 112 79 c125 88
267 212 370 321 269 286 424 578 504 951 26 123 26 432 -1 545 -84 359 -261
595 -556 740 -160 80 -407 122 -570 99z m-3495 -1708 c84 -50 136 -167 115
-259 -12 -55 -54 -120 -97 -150 -167 -115 -401 19 -380 219 18 176 212 278
362 190z m1232 -3 c92 -57 140 -171 113 -267 -18 -64 -60 -119 -115 -152 -95
-55 -238 -29 -306 57 -107 135 -50 324 116 387 50 19 141 8 192 -25z"/>
</g>
</svg>
