<?xml version="1.0" standalone="no"?>
<!DOCTYPE svg PUBLIC "-//W3C//DTD SVG 20010904//EN"
 "http://www.w3.org/TR/2001/REC-SVG-20010904/DTD/svg10.dtd">
<svg version="1.0" xmlns="http://www.w3.org/2000/svg"
 width="1079.000000pt" height="459.000000pt" viewBox="0 0 1079.000000 459.000000"
 preserveAspectRatio="xMidYMid meet">

<g transform="translate(0.000000,459.000000) scale(0.100000,-0.100000)"
fill="#000000" stroke="none">
<path d="M7025 3398 c-90 -99 -327 -681 -384 -940 -10 -47 -22 -91 -25 -97
-15 -24 -173 -142 -204 -152 -28 -9 -36 -8 -53 7 -29 26 -24 60 37 226 63 174
77 254 50 306 -18 35 -62 62 -100 62 -70 0 -204 -80 -301 -179 -27 -28 -55
-51 -62 -51 -17 0 -17 0 7 51 33 73 25 121 -24 147 -32 17 -77 -4 -135 -64
-30 -31 -78 -73 -106 -94 -52 -38 -146 -90 -164 -90 -6 0 -20 22 -32 50 -28
65 -112 145 -170 160 -105 29 -217 -34 -331 -184 -107 -142 -152 -261 -153
-402 0 -83 2 -94 30 -140 75 -122 261 -128 400 -13 92 76 181 219 220 351 15
51 20 58 53 69 20 6 64 27 98 45 33 19 65 34 71 34 5 0 -16 -69 -47 -152 -74
-196 -87 -255 -69 -294 8 -16 27 -33 42 -38 41 -15 75 8 122 82 139 220 220
335 276 396 105 115 179 157 179 102 0 -12 -19 -79 -42 -147 -34 -103 -42
-138 -42 -206 -1 -73 1 -84 24 -108 58 -63 146 -72 235 -25 32 17 87 53 122
82 69 55 66 55 98 -4 24 -43 81 -72 141 -72 75 2 149 40 237 124 l76 71 11
-38 c13 -49 27 -66 69 -88 63 -32 177 -4 293 72 27 17 28 17 44 -5 22 -32 58
-44 90 -30 14 6 44 41 67 77 198 310 380 521 448 521 28 0 24 -19 -31 -180
-38 -109 -50 -159 -50 -203 0 -112 48 -162 155 -161 67 1 127 26 208 88 26 20
49 36 52 36 3 0 21 -18 41 -39 43 -48 86 -64 173 -63 135 1 305 95 468 258 87
88 114 129 98 153 -13 22 -34 10 -116 -65 -155 -141 -269 -209 -368 -221 -61
-7 -104 9 -120 43 -21 46 -14 62 37 88 79 41 170 110 253 192 150 147 180 277
83 353 -39 31 -132 29 -203 -4 -70 -33 -183 -147 -246 -249 -55 -89 -102 -211
-111 -291 -6 -52 -9 -55 -63 -93 -78 -54 -119 -67 -143 -46 -10 10 -18 26 -18
37 0 11 24 84 54 161 72 187 84 251 61 311 -21 58 -59 79 -126 73 -75 -8 -151
-52 -250 -145 -49 -47 -91 -84 -94 -82 -2 3 3 24 11 49 21 61 15 108 -17 133
-24 17 -31 18 -64 7 -23 -8 -47 -27 -65 -52 -29 -40 -103 -220 -154 -375 -24
-73 -34 -88 -84 -134 -31 -28 -80 -63 -108 -77 -45 -22 -57 -24 -78 -14 -20 9
-26 19 -26 44 0 50 37 170 101 328 33 79 59 153 59 163 0 23 -53 77 -76 77 -9
0 -32 -9 -50 -21 -41 -25 -91 -125 -156 -307 l-43 -123 -100 -98 c-55 -53
-114 -102 -131 -108 -40 -14 -75 2 -85 39 -23 86 101 443 312 898 34 74 62
149 63 167 0 45 -28 73 -74 73 -31 0 -44 -7 -75 -42z m1883 -435 c2 -12 -7
-41 -19 -65 -40 -78 -229 -254 -229 -213 0 39 94 187 165 262 46 48 78 54 83
16z m-3628 -402 c0 -48 18 -84 60 -121 l40 -36 -19 -57 c-50 -144 -151 -272
-225 -284 -63 -10 -106 29 -106 95 1 45 52 183 99 265 44 76 121 167 141 167
5 0 10 -13 10 -29z"/>
<path d="M7463 3329 c-84 -42 -118 -135 -67 -186 22 -22 32 -25 71 -20 100 11
170 141 108 202 -29 30 -57 31 -112 4z"/>
<path d="M4210 3235 c-262 -58 -530 -239 -530 -357 0 -39 27 -68 64 -68 34 0
42 6 176 110 133 104 332 178 451 167 109 -10 191 -63 235 -154 23 -46 28 -72
32 -158 13 -297 -133 -634 -382 -880 -94 -92 -182 -154 -264 -185 -50 -19 -69
-21 -155 -15 -86 6 -101 4 -118 -11 -39 -36 -18 -87 49 -116 60 -27 183 -29
267 -4 175 52 350 185 507 387 114 147 187 283 237 444 103 328 75 572 -85
731 -87 87 -162 116 -309 120 -71 2 -133 -2 -175 -11z"/>
<path d="M3415 3131 c-44 -27 -81 -71 -183 -212 -152 -211 -645 -974 -668
-1034 -9 -22 -21 -18 -28 9 -10 42 14 522 39 776 14 135 25 260 25 278 0 69
-79 104 -150 67 -36 -18 -71 -79 -222 -375 -236 -465 -528 -1158 -528 -1253 0
-18 7 -42 15 -54 32 -46 119 -31 154 27 10 18 56 131 101 252 77 207 153 393
285 693 61 139 85 185 97 185 4 0 4 -37 0 -82 -13 -157 -8 -658 7 -711 34
-117 153 -154 235 -73 18 18 75 104 128 192 242 402 536 865 559 880 18 11 18
1 -2 -86 -59 -266 -109 -642 -109 -819 0 -152 33 -263 85 -291 34 -18 74 -15
97 8 19 19 21 34 23 264 2 183 8 280 24 395 28 203 84 477 147 725 13 53 24
118 24 143 0 40 -5 52 -34 81 -39 39 -75 44 -121 15z"/>
<path d="M4120 2933 c-64 -21 -69 -31 -129 -245 -83 -296 -148 -653 -139 -763
3 -34 12 -62 23 -75 31 -34 102 -23 124 19 6 10 20 81 31 157 23 148 84 402
146 599 59 191 64 217 48 254 -9 20 -26 37 -48 46 -20 8 -37 15 -38 14 -2 0
-10 -3 -18 -6z"/>
<path d="M7845 2053 c-944 -30 -1817 -149 -2475 -338 -302 -86 -437 -142 -507
-208 -27 -25 -33 -38 -33 -73 0 -34 5 -47 26 -63 15 -12 34 -21 42 -21 9 0 68
24 131 54 466 218 1317 418 2251 530 294 35 836 66 1175 66 233 0 283 6 259
30 -22 22 -512 35 -869 23z"/>
</g>
</svg>
