<?xml version="1.0" encoding="UTF-8" standalone="no"?>
<svg width="800" height="1000" viewBox="0 0 800 1000" xmlns="http://www.w3.org/2000/svg">
  <rect width="800" height="1000" fill="#f5f5f5"/>
  
  <!-- 背景装饰 -->
  <rect x="0" y="0" width="800" height="1000" fill="#f8fafc" />
  <circle cx="400" cy="300" r="250" fill="#fce7f3" opacity="0.5" />
  
  <!-- 花朵装饰 -->
  <circle cx="300" cy="250" r="20" fill="#ec4899" opacity="0.7" />
  <circle cx="450" cy="300" r="15" fill="#ec4899" opacity="0.7" />
  <circle cx="350" cy="400" r="25" fill="#ec4899" opacity="0.7" />
  <circle cx="500" cy="450" r="18" fill="#ec4899" opacity="0.7" />
  <circle cx="250" cy="500" r="22" fill="#ec4899" opacity="0.7" />
  <circle cx="400" cy="550" r="20" fill="#ec4899" opacity="0.7" />
  <circle cx="550" cy="350" r="16" fill="#ec4899" opacity="0.7" />
  
  <!-- 连衣裙轮廓 -->
  <path d="M350,200 Q400,180 450,200 L500,250 Q530,300 530,350 L500,700 Q450,800 400,850 Q350,800 300,700 L270,350 Q270,300 300,250 Z" 
        fill="#fbcfe8" stroke="#be185d" stroke-width="5"/>
  
  <!-- 裙子腰带 -->
  <path d="M300,350 L500,350" stroke="#be185d" stroke-width="8" />
  
  <!-- 高跟鞋轮廓 (左) -->
  <path d="M330,850 L350,900 L410,900 L410,870 C410,860 400,850 390,850 Z" fill="#1e293b" stroke="#0f172a" stroke-width="3"/>
  <path d="M410,900 L420,950 L400,950 L390,900" fill="#1e293b" stroke="#0f172a" stroke-width="3"/>
  <path d="M350,900 L340,920 C340,935 370,935 370,920 L360,900" fill="#1e293b" stroke="#0f172a" stroke-width="3"/>
  
  <!-- 高跟鞋轮廓 (右) -->
  <path d="M470,850 L450,900 L390,900 L390,870 C390,860 400,850 410,850 Z" fill="#1e293b" stroke="#0f172a" stroke-width="3"/>
  <path d="M390,900 L380,950 L400,950 L410,900" fill="#1e293b" stroke="#0f172a" stroke-width="3"/>
  <path d="M450,900 L460,920 C460,935 430,935 430,920 L440,900" fill="#1e293b" stroke="#0f172a" stroke-width="3"/>
  
  <!-- 标题 -->
  <rect x="200" y="50" width="400" height="80" rx="10" fill="#be185d" opacity="0.8"/>
  <text x="400" y="100" font-family="sans-serif" font-size="28" text-anchor="middle" fill="white">约会优雅春季Look</text>
  
  <!-- 标签 -->
  <rect x="50" y="850" width="100" height="40" rx="20" fill="#ec4899" opacity="0.8"/>
  <text x="100" y="875" font-family="sans-serif" font-size="18" text-anchor="middle" fill="white">约会</text>
  
  <rect x="160" y="850" width="100" height="40" rx="20" fill="#22c55e" opacity="0.8"/>
  <text x="210" y="875" font-family="sans-serif" font-size="18" text-anchor="middle" fill="white">春季</text>
</svg> 