<?xml version="1.0" encoding="UTF-8" standalone="no"?>
<svg width="800" height="1000" viewBox="0 0 800 1000" xmlns="http://www.w3.org/2000/svg">
  <rect width="800" height="1000" fill="#f5f5f5"/>
  
  <!-- 背景装饰 -->
  <rect x="0" y="0" width="800" height="1000" fill="#f8fafc" />
  <circle cx="400" cy="300" r="250" fill="#fef3c7" opacity="0.5" />
  
  <!-- 衣服轮廓 - 米色针织衫 -->
  <path d="M300,200 L500,200 L550,300 L550,600 L250,600 L250,300 Z" fill="#f5f5dc" stroke="#d97706" stroke-width="5"/>
  <path d="M300,200 L250,300 M500,200 L550,300" stroke="#d97706" stroke-width="5" fill="none"/>
  
  <!-- 针织纹理 -->
  <path d="M280,350 L520,350 M280,400 L520,400 M280,450 L520,450 M280,500 L520,500 M280,550 L520,550" 
        stroke="#d97706" stroke-width="2" fill="none" stroke-dasharray="5,5"/>
  
  <!-- 裤子轮廓 - 蓝色牛仔裤 -->
  <path d="M300,620 L500,620 L520,900 L420,900 L400,750 L380,900 L280,900 Z" fill="#3b82f6" stroke="#1d4ed8" stroke-width="5"/>
  
  <!-- 牛仔纹理 -->
  <path d="M320,700 L380,700 M420,700 L480,700 M320,750 L380,750 M420,750 L480,750 M320,800 L380,800 M420,800 L480,800 M320,850 L380,850 M420,850 L480,850"
        stroke="#1d4ed8" stroke-width="2" fill="none" stroke-dasharray="3,3"/>
  
  <!-- 标题 -->
  <rect x="200" y="50" width="400" height="80" rx="10" fill="#d97706" opacity="0.8"/>
  <text x="400" y="100" font-family="sans-serif" font-size="28" text-anchor="middle" fill="white">休闲牛仔秋季Look</text>
  
  <!-- 标签 -->
  <rect x="50" y="850" width="100" height="40" rx="20" fill="#3b82f6" opacity="0.8"/>
  <text x="100" y="875" font-family="sans-serif" font-size="18" text-anchor="middle" fill="white">休闲</text>
  
  <rect x="160" y="850" width="100" height="40" rx="20" fill="#b45309" opacity="0.8"/>
  <text x="210" y="875" font-family="sans-serif" font-size="18" text-anchor="middle" fill="white">秋季</text>
</svg> 